<?xml version="1.0" standalone="no"?>
<!DOCTYPE svg PUBLIC "-//W3C//DTD SVG 20010904//EN"
 "http://www.w3.org/TR/2001/REC-SVG-20010904/DTD/svg10.dtd">
<svg version="1.0" xmlns="http://www.w3.org/2000/svg"
 width="260.000000pt" height="260.000000pt" viewBox="0 0 260.000000 260.000000"
 preserveAspectRatio="xMidYMid meet">
<metadata>
Created by potrace 1.11, written by Peter Selinger 2001-2013
</metadata>
<g transform="translate(0.000000,260.000000) scale(0.100000,-0.100000)"
fill="#000000" stroke="none">
<path d="M1856 2545 c-9 -26 -7 -32 5 -12 6 10 9 21 6 23 -2 3 -7 -2 -11 -11z"/>
<path d="M1040 2159 c-259 -87 -456 -256 -575 -494 -70 -139 -95 -249 -95
-417 0 -239 69 -434 217 -614 55 -66 181 -177 193 -169 4 2 15 84 25 182 10
98 21 181 24 185 3 3 37 -30 75 -74 l69 -80 50 94 c27 51 97 185 156 298 l108
205 -250 3 c-160 1 -254 -1 -261 -8 -7 -7 -6 -10 2 -10 7 0 12 -5 12 -11 0 -5
-4 -7 -10 -4 -5 3 -7 0 -4 -8 4 -10 18 -13 57 -9 29 3 53 8 55 12 5 14 332 12
348 -1 11 -9 4 -29 -43 -118 -61 -115 -96 -169 -140 -216 -15 -17 -25 -26 -20
-21 14 19 7 28 -10 15 -17 -13 -17 -12 -2 6 29 36 33 50 7 28 -35 -33 -43 -28
-16 9 19 28 12 24 -47 -23 -108 -86 -127 -89 -47 -7 54 55 72 80 72 101 0 15
-2 27 -5 27 -3 0 -29 -11 -58 -26 -43 -21 -48 -21 -27 -5 14 11 28 21 32 21 4
0 6 8 5 18 -1 17 -11 15 -109 -20 -107 -37 -134 -42 -79 -13 16 8 35 21 43 28
7 8 27 21 43 30 33 18 19 21 -37 8 -28 -7 -38 -5 -42 5 -3 8 -20 14 -38 15
-33 0 -33 0 -8 11 24 11 24 12 -15 18 l-40 6 49 15 c64 19 70 37 14 41 l-43 4
33 8 c26 7 30 11 21 22 -6 8 -23 14 -38 15 -33 1 -68 14 -55 21 8 5 55 17 92
24 6 1 12 -2 12 -7 0 -5 5 -9 12 -9 6 0 9 2 6 5 -3 3 12 46 33 96 43 99 43 99
29 99 -5 0 -14 -18 -20 -41 -15 -56 -43 -81 -78 -72 l-27 7 25 6 c22 6 19 8
-29 24 -43 15 -50 20 -37 28 12 7 14 13 6 29 -9 17 -7 19 15 19 22 0 26 4 23
23 -2 15 -27 38 -80 72 -78 50 -102 80 -77 96 7 4 17 5 21 3 8 -5 0 76 -8 85
-9 10 45 92 95 144 125 132 336 256 414 245 22 -3 23 -6 12 -63 -3 -16 8 1 25
38 17 38 30 70 28 72 -2 1 -41 -10 -88 -26z m-290 -845 c0 -18 -39 -18 -63 1
-18 13 -17 14 5 17 34 5 58 -2 58 -18z"/>
<path d="M1587 2083 c-48 -84 -89 -163 -85 -163 2 0 32 41 68 90 40 55 74 93
88 96 39 11 180 -64 267 -141 17 -15 41 -37 55 -49 38 -32 86 -97 104 -140 19
-46 19 -49 5 -40 -8 4 -8 0 0 -15 11 -19 6 -27 -39 -71 -27 -27 -50 -51 -50
-53 0 -3 16 0 35 6 44 13 57 2 25 -21 -13 -9 -27 -19 -30 -22 -4 -3 -10 -20
-13 -37 -5 -27 -3 -33 11 -34 25 0 -17 -28 -92 -60 -88 -37 -84 -49 16 -49
l83 0 -24 -19 c-23 -18 -23 -19 -5 -24 15 -3 9 -8 -23 -22 -24 -10 -43 -24
-43 -31 0 -7 -10 -16 -22 -20 -19 -6 -14 -10 29 -18 35 -7 50 -15 45 -22 -6
-10 -61 -22 -109 -23 -19 -1 -16 -28 5 -36 15 -6 14 -8 -8 -20 l-24 -13 34
-15 c45 -20 21 -21 -55 -2 -106 25 -103 15 9 -27 97 -37 107 -43 90 -55 -12
-9 -13 -13 -4 -13 7 0 11 -3 8 -6 -4 -3 -22 -1 -42 4 -44 13 -46 8 -6 -13 17
-9 30 -20 30 -25 0 -11 -37 0 -127 38 -40 17 -73 30 -73 28 0 -2 38 -26 85
-55 91 -56 107 -71 48 -45 -21 9 -52 20 -68 24 -17 4 -40 12 -52 18 -37 20
-40 13 -5 -14 18 -14 30 -29 27 -34 -3 -4 10 -22 28 -40 17 -18 25 -29 17 -25
-13 8 -139 98 -179 129 -33 25 6 -22 83 -102 45 -46 83 -88 85 -95 5 -14 -64
41 -104 83 -16 17 -43 41 -60 53 -27 20 -26 17 13 -32 63 -81 56 -100 -11 -28
l-40 42 27 -48 c30 -53 29 -72 -3 -35 -66 77 -64 76 -37 28 32 -59 36 -82 13
-86 -12 -1 -25 8 -35 27 -22 38 -37 38 -17 -1 16 -31 11 -65 -6 -39 -14 22
-11 -7 6 -71 8 -30 13 -55 11 -57 -1 -2 -15 19 -30 47 -33 61 -56 66 -56 13
l-1 -38 -15 30 c-8 17 -21 41 -28 54 -17 28 -10 90 10 107 8 6 14 19 14 28 0
9 9 25 19 35 10 10 22 29 26 40 3 12 10 19 15 16 5 -3 11 8 15 25 4 18 11 27
18 23 6 -4 8 0 4 10 -4 11 -1 17 8 17 9 0 12 6 9 15 -4 8 -2 15 2 15 5 0 18
18 28 40 11 22 26 40 34 40 9 0 13 2 10 6 -3 3 5 24 18 47 13 23 33 59 44 80
11 20 24 37 28 37 4 1 18 10 31 21 20 16 22 22 11 29 -10 6 -8 15 13 40 15 17
27 36 27 42 0 6 7 19 16 29 9 10 14 24 12 31 -3 7 -54 -61 -113 -152 -59 -91
-198 -301 -307 -468 -109 -166 -201 -308 -204 -316 -3 -8 0 -13 8 -13 23 2
182 -15 201 -22 14 -5 -13 -31 -127 -121 -80 -63 -145 -118 -146 -122 0 -13
114 -21 234 -15 144 6 229 28 371 96 256 122 431 339 513 634 13 48 17 101 16
232 0 155 -3 178 -27 257 -79 257 -245 456 -489 584 -62 32 -116 60 -119 62
-4 2 -27 -32 -52 -75z m-210 -1370 c-3 -10 -5 -4 -5 12 0 17 2 24 5 18 2 -7 2
-21 0 -30z"/>
<path d="M1480 1890 c-6 -11 -8 -20 -6 -20 3 0 10 9 16 20 6 11 8 20 6 20 -3
0 -10 -9 -16 -20z"/>
<path d="M1370 1700 c-6 -11 -8 -20 -6 -20 3 0 10 9 16 20 6 11 8 20 6 20 -3
0 -10 -9 -16 -20z"/>
<path d="M1345 1659 c-4 -6 -5 -12 -2 -15 2 -3 7 2 10 11 7 17 1 20 -8 4z"/>
<path d="M1323 1618 c-22 -29 -24 -38 -8 -38 9 0 13 5 10 10 -4 6 -1 17 5 25
7 8 10 15 7 15 -2 0 -9 -6 -14 -12z"/>
<path d="M853 1545 c-3 -9 -3 -18 -1 -21 3 -3 8 4 11 16 6 23 -1 27 -10 5z"/>
</g>
</svg>
